<mxfile host="65bd71144e">
    <diagram id="Y38OkX1yTjoADHJNiRtp" name="Page-1">
        <mxGraphModel dx="886" dy="419" grid="1" gridSize="10" guides="1" tooltips="1" connect="1" arrows="1" fold="1" page="1" pageScale="1" pageWidth="827" pageHeight="1169" math="0" shadow="0">
            <root>
                <mxCell id="0"/>
                <mxCell id="1" parent="0"/>
                <mxCell id="14" value="import" style="edgeStyle=none;html=1;" edge="1" parent="1" source="12" target="26">
                    <mxGeometry relative="1" as="geometry">
                        <mxPoint x="472" y="112.03004291845491" as="targetPoint"/>
                    </mxGeometry>
                </mxCell>
                <mxCell id="12" value="{&lt;div&gt;&amp;nbsp; &amp;nbsp; &quot;mainLanguage&quot;: &quot;de-CH&quot;,&lt;/div&gt;&lt;div&gt;&amp;nbsp; &amp;nbsp; &quot;jsonFiles&quot;: List&amp;lt;byte []&amp;gt;&lt;/div&gt;&lt;div&gt;}&lt;/div&gt;" style="text;html=1;align=left;verticalAlign=middle;resizable=0;points=[];autosize=1;strokeColor=none;fillColor=none;" vertex="1" parent="1">
                    <mxGeometry x="209" y="80" width="180" height="70" as="geometry"/>
                </mxCell>
                <mxCell id="15" value="POST api/sync/setup" style="text;html=1;align=center;verticalAlign=middle;resizable=0;points=[];autosize=1;strokeColor=none;fillColor=none;" vertex="1" parent="1">
                    <mxGeometry x="199" y="53" width="140" height="30" as="geometry"/>
                </mxCell>
                <mxCell id="16" value="PR&lt;div&gt;completed&lt;/div&gt;" style="rounded=1;whiteSpace=wrap;html=1;fillColor=#d5e8d4;strokeColor=#82b366;" vertex="1" parent="1">
                    <mxGeometry x="110" y="40" width="80" height="40" as="geometry"/>
                </mxCell>
                <mxCell id="19" value="Azure" style="whiteSpace=wrap;html=1;" vertex="1" parent="1">
                    <mxGeometry x="608.91" y="305" width="80" height="40" as="geometry"/>
                </mxCell>
                <mxCell id="21" value="export" style="edgeStyle=none;html=1;" edge="1" parent="1" source="22" target="19">
                    <mxGeometry relative="1" as="geometry">
                        <mxPoint x="510" y="325.6983560404203" as="sourcePoint"/>
                    </mxGeometry>
                </mxCell>
                <mxCell id="22" value="SuperLocalizer" style="whiteSpace=wrap;html=1;" vertex="1" parent="1">
                    <mxGeometry x="339" y="298" width="120" height="60" as="geometry"/>
                </mxCell>
                <mxCell id="24" value="&lt;div&gt;open&lt;/div&gt;PR" style="rounded=1;whiteSpace=wrap;html=1;fillColor=#d5e8d4;strokeColor=#82b366;" vertex="1" parent="1">
                    <mxGeometry x="720" y="340" width="80" height="40" as="geometry"/>
                </mxCell>
                <mxCell id="25" value="when all props are verified and one every day&lt;div&gt;or when forced&lt;/div&gt;" style="text;html=1;align=center;verticalAlign=middle;resizable=0;points=[];autosize=1;strokeColor=none;fillColor=none;" vertex="1" parent="1">
                    <mxGeometry x="80" y="270" width="270" height="40" as="geometry"/>
                </mxCell>
                <mxCell id="26" value="SuperLocalizer" style="whiteSpace=wrap;html=1;" vertex="1" parent="1">
                    <mxGeometry x="571" y="83" width="120" height="60" as="geometry"/>
                </mxCell>
                <mxCell id="27" value="Azure" style="whiteSpace=wrap;html=1;" vertex="1" parent="1">
                    <mxGeometry x="109.99999999999994" y="110" width="80" height="40" as="geometry"/>
                </mxCell>
                <mxCell id="28" value="dev team" style="sketch=0;outlineConnect=0;fontColor=#232F3E;gradientColor=none;fillColor=#232F3D;strokeColor=none;dashed=0;verticalLabelPosition=bottom;verticalAlign=top;align=center;html=1;fontSize=12;fontStyle=0;aspect=fixed;pointerEvents=1;shape=mxgraph.aws4.users;" vertex="1" parent="1">
                    <mxGeometry x="20" y="70" width="50" height="50" as="geometry"/>
                </mxCell>
                <mxCell id="30" style="edgeStyle=none;html=1;" edge="1" parent="1" source="29" target="22">
                    <mxGeometry relative="1" as="geometry"/>
                </mxCell>
                <mxCell id="29" value="language team" style="sketch=0;outlineConnect=0;fontColor=#232F3E;gradientColor=none;fillColor=#232F3D;strokeColor=none;dashed=0;verticalLabelPosition=bottom;verticalAlign=top;align=center;html=1;fontSize=12;fontStyle=0;aspect=fixed;pointerEvents=1;shape=mxgraph.aws4.users;" vertex="1" parent="1">
                    <mxGeometry x="50" y="303" width="50" height="50" as="geometry"/>
                </mxCell>
                <mxCell id="31" value="+ message on Teams app" style="text;html=1;align=center;verticalAlign=middle;resizable=0;points=[];autosize=1;strokeColor=none;fillColor=none;" vertex="1" parent="1">
                    <mxGeometry x="389" y="70" width="160" height="30" as="geometry"/>
                </mxCell>
                <mxCell id="32" value="+ no conflict marged" style="text;html=1;align=center;verticalAlign=middle;resizable=0;points=[];autosize=1;strokeColor=none;fillColor=none;" vertex="1" parent="1">
                    <mxGeometry x="510" y="356" width="130" height="30" as="geometry"/>
                </mxCell>
                <mxCell id="33" value="POST /property/search&lt;div&gt;PATCH /property/update&lt;/div&gt;&lt;div&gt;CRUD /comment&lt;/div&gt;" style="text;html=1;align=center;verticalAlign=middle;resizable=0;points=[];autosize=1;strokeColor=none;fillColor=none;" vertex="1" parent="1">
                    <mxGeometry x="140" y="330" width="150" height="60" as="geometry"/>
                </mxCell>
                <mxCell id="36" value="POST /history/action/save&lt;div&gt;POST /history/undo&lt;/div&gt;&lt;div&gt;POST /history/redo&lt;/div&gt;" style="text;html=1;align=center;verticalAlign=middle;resizable=0;points=[];autosize=1;strokeColor=none;fillColor=none;" vertex="1" parent="1">
                    <mxGeometry x="319" y="370" width="160" height="60" as="geometry"/>
                </mxCell>
                <mxCell id="39" value="take a snapshot" style="rounded=1;whiteSpace=wrap;html=1;fillColor=#d5e8d4;strokeColor=#82b366;" vertex="1" parent="1">
                    <mxGeometry x="720" y="40" width="80" height="40" as="geometry"/>
                </mxCell>
                <mxCell id="40" value="check conflict" style="rounded=1;whiteSpace=wrap;html=1;fillColor=#d5e8d4;strokeColor=#82b366;" vertex="1" parent="1">
                    <mxGeometry x="720" y="93" width="80" height="40" as="geometry"/>
                </mxCell>
                <mxCell id="41" value="MERGE" style="rounded=1;whiteSpace=wrap;html=1;fillColor=#d5e8d4;strokeColor=#82b366;" vertex="1" parent="1">
                    <mxGeometry x="720" y="143" width="80" height="40" as="geometry"/>
                </mxCell>
                <mxCell id="42" value="take a snapshot" style="rounded=1;whiteSpace=wrap;html=1;fillColor=#d5e8d4;strokeColor=#82b366;" vertex="1" parent="1">
                    <mxGeometry x="720" y="280" width="80" height="40" as="geometry"/>
                </mxCell>
            </root>
        </mxGraphModel>
    </diagram>
</mxfile>